HIERARCHY
ROOT Hips
{
  OFFSET -187.679 86.5976 -156.378
  CHANNELS 6 Xposition Yposition Zposition Zrotation Xrotation Yrotation
  JOINT LeftUpLeg
  {
    OFFSET 8.64259 1.95398 -2.38835
    CHANNELS 3 Zrotation Xrotation Yrotation
    JOINT LeftLeg
    {
      OFFSET 43.7702 0 0
      CHANNELS 3 Zrotation Xrotation Yrotation
      JOINT LeftFoot
      {
        OFFSET 40.6238 0 0
        CHANNELS 3 Zrotation Xrotation Yrotation
        JOINT LeftToeBase
        {
          OFFSET 12.7242 0 0
          CHANNELS 3 Zrotation Xrotation Yrotation
          End Site
          {
            OFFSET 0 0 0
          }
        }
      }
    }
  }
  JOINT RightUpLeg
  {
    OFFSET -8.2249 1.95398 -2.59336
    CHANNELS 3 Zrotation Xrotation Yrotation
    JOINT RightLeg
    {
      OFFSET 43.5653 0 0
      CHANNELS 3 Zrotation Xrotation Yrotation
      JOINT RightFoot
      {
        OFFSET 40.6238 0 0
        CHANNELS 3 Zrotation Xrotation Yrotation
        JOINT RightToeBase
        {
          OFFSET 12.7242 0 0
          CHANNELS 3 Zrotation Xrotation Yrotation
          End Site
          {
            OFFSET 0 0 0
          }
        }
      }
    }
  }
  JOINT Spine
  {
    OFFSET 0.165834 0.87714 6.61349
    CHANNELS 3 Zrotation Xrotation Yrotation
    JOINT Spine1
    {
      OFFSET 7.38963 1.71661e-005 0
      CHANNELS 3 Zrotation Xrotation Yrotation
      JOINT Spine2
      {
        OFFSET 11.9445 1.14441e-005 0
        CHANNELS 3 Zrotation Xrotation Yrotation
        JOINT Spine3
        {
          OFFSET 14.7254 4.19617e-005 0
          CHANNELS 3 Zrotation Xrotation Yrotation
          JOINT Spine4
          {
            OFFSET 10.9679 0 0
            CHANNELS 3 Zrotation Xrotation Yrotation
            JOINT RightShoulder
            {
              OFFSET 2.46616 -1.6653 3.69651
              CHANNELS 3 Zrotation Xrotation Yrotation
              JOINT RightArm
              {
                OFFSET 13.0012 0 0
                CHANNELS 3 Zrotation Xrotation Yrotation
                JOINT RightForeArm
                {
                  OFFSET 28.7848 1.52588e-005 0
                  CHANNELS 3 Zrotation Xrotation Yrotation
                  JOINT RightHand
                  {
                    OFFSET 26.5688 1.52588e-005 0
                    CHANNELS 3 Zrotation Xrotation Yrotation
                    End Site
                    {
                      OFFSET 0 0 0
                    }
                  }
                }
              }
            }
            JOINT LeftShoulder
            {
              OFFSET 2.38034 -1.29275 -3.7523
              CHANNELS 3 Zrotation Xrotation Yrotation
              JOINT LeftArm
              {
                OFFSET 16.3182 6.10352e-005 0
                CHANNELS 3 Zrotation Xrotation Yrotation
                JOINT LeftForeArm
                {
                  OFFSET 27.0901 0 0
                  CHANNELS 3 Zrotation Xrotation Yrotation
                  JOINT LeftHand
                  {
                    OFFSET 24.5451 1.52588e-005 0
                    CHANNELS 3 Zrotation Xrotation Yrotation
                    End Site
                    {
                      OFFSET 0 0 0
                    }
                  }
                }
              }
            }
            JOINT Neck
            {
              OFFSET 5.0226 -0.0266342 0
              CHANNELS 3 Zrotation Xrotation Yrotation
              JOINT Head
              {
                OFFSET 6.69363 2.86102e-005 0
                CHANNELS 3 Zrotation Xrotation Yrotation
                End Site
                {
                  OFFSET 0 0 0
                }
              }
            }
          }
        }
      }
    }
  }
}
MOTION
Frames:	7
Frame Time:	0.0416667
-94.985 91.0927 40.3451 89.877 -45.18 85.8198 -167.73 19.4067 113.535 -37.2208 19.8223 4.37459 63.4727 2.72815 -1.75219 20.712 -6.94712 8.91329 164.261 32.3355 69.5802 -53.9293 -8.53477 2.28348 72.2889 -4.93937 1.61586 33.9907 0.588955 0.842112 0.236497 8.29726 -89.8366 10.2787 0.545942 0.277647 -1.3922 0.557643 0.253343 -23.9277 0.437244 0.428891 -3.91511 0.437261 0.428886 92.4055 -42.4731 -98.4904 26.3721 -10.1676 -0.657643 -22.6789 -8.13919 -33.2272 -9.48769 -0.165218 -3.11914 -84.6317 -40.8535 85.7353 -29.6164 13.0115 6.81507 10.3665 -7.81602 -34.7099 -0.929387 -0.059882 -2.05349 -18.7164 19.2866 19.3365 6.56619 19.862 0.652261 
-89.1587 89.2551 33.4857 90.2949 -42.3407 88.9311 -165.402 24.4946 114.416 -46.2917 19.7135 1.69154 73.2504 6.00652 -5.08497 32.3059 -3.4953 16.1249 164.366 31.2201 66.2519 -50.1889 -7.7924 2.04025 67.1919 -3.18671 2.38753 36.6615 1.33177 -0.688066 0.330633 8.33571 -90.1226 10.2029 0.602917 -0.294553 -1.46795 0.589365 -0.320811 -24.0041 0.663561 -0.0997293 -3.99147 0.663548 -0.099739 92.4534 -42.8637 -98.3241 23.9409 -7.5364 -3.99845 -23.8395 -8.25253 -35.8944 -8.2345 -0.119601 -3.50225 -84.2516 -39.8089 86.2191 -32.7737 14.514 9.19217 11.3088 -6.53162 -33.4267 -2.09126 -0.0846043 -2.6946 -18.1823 18.6028 14.6485 4.59759 19.1279 2.69421 
-82.0559 90.5504 25.7117 92.1324 -35.9809 91.1767 -164.725 27.3511 109.953 -54.0884 22.6882 0.13582 79.7939 9.66611 -2.91333 25.1506 -3.92253 6.80023 166.108 25.1232 62.4844 -42.151 -6.40273 -1.48072 56.9788 -0.0389468 1.54478 29.6214 0.297902 -1.06632 0.171234 8.43615 -90.2433 10.0018 0.230641 -0.502458 -1.66919 0.208306 -0.512126 -24.2039 0.370974 -0.40991 -4.19127 0.370982 -0.409916 93.7715 -43.5088 -95.9812 22.3614 -1.54728 -3.79269 -26.6769 -8.91496 -43.0361 -7.57587 -0.169822 -2.56568 -84.8151 -37.9729 84.955 -34.3739 18.228 9.81653 11.3959 -5.61902 -30.0345 -2.30816 -0.0849737 -1.56597 -18.4482 16.1955 6.57233 3.98865 16.7783 5.83795 
-76.0035 92.1568 18.0919 92.7264 -31.3316 91.1485 -165.598 25.6504 103.001 -55.9227 21.9622 -0.486385 83.0397 10.9815 -3.19384 21.562 -5.11255 5.56391 171.175 24.6269 62.5262 -47.0876 -7.10002 -6.90462 62.3499 -1.78451 -0.434179 17.3998 -1.94715 0.406029 0.0816314 8.48074 -90.1899 9.91253 0.0765185 -0.383346 -1.75847 0.0595683 -0.386349 -24.2933 0.188189 -0.342628 -4.28065 0.18818 -0.342632 94.528 -43.1992 -94.7727 22.5572 -0.629705 -0.720135 -27.8995 -9.83626 -44.6609 -8.45426 -0.224419 -2.00353 -85.7432 -38.2677 83.4 -29.3998 24.1205 6.28436 9.92733 -7.28851 -24.6939 -3.37429 -0.110627 -1.63362 -20.1149 13.6741 3.7594 4.68869 14.3083 5.67276 
-71.7964 94.1986 12.177 93.2619 -30.3085 91.0985 -167.277 21.8001 97.0831 -53.2169 17.6142 -0.962433 83.3764 11.161 -2.1915 17.5428 -5.55876 2.42865 173.231 28.8983 68.5609 -52.6581 -0.54567 -5.22617 67.2883 -3.60398 0.0921665 19.0312 -2.04479 1.3385 -0.0775172 8.70807 -90.0741 9.45761 -0.187672 -0.132805 -2.21333 -0.193357 -0.124417 -24.7485 -0.139079 -0.183057 -4.73585 -0.139094 -0.183074 94.7342 -42.6442 -94.522 24.4802 -4.89547 0.153609 -26.4638 -11.3619 -38.7962 -7.71886 -0.126849 -3.29041 -85.5901 -37.8279 83.5826 -26.1845 18.2537 2.66671 9.02473 -9.56728 -24.4716 0.213313 -0.0136139 -0.947623 -20.6184 13.0295 5.33809 5.38449 13.6723 4.25782 
-68.1514 96.5688 7.85314 91.8502 -30.9458 91.1291 -169.385 18.5442 92.8546 -47.3943 12.7824 -1.16217 82.1567 10.4454 -0.888586 14.6246 -6.17909 1.0307 176.746 33.8628 80.6652 -54.453 -1.50965 -3.60973 67.0148 -3.48025 -0.378731 21.6033 -2.08812 2.70302 -0.266997 8.70878 -90.0208 9.4563 -0.541704 -0.0003948 -2.21454 -0.541191 0.0234443 -24.7504 -0.516523 -0.16318 -4.73778 -0.516539 -0.163191 94.8431 -42.5286 -94.3575 26.9499 -7.25557 2.22973 -24.6461 -11.6315 -34.1759 -8.13065 -0.127836 -3.36136 -85.6002 -36.8865 83.387 -24.968 14.1321 -0.264637 8.22931 -11.3626 -27.4638 -1.15384 -0.0743769 -2.95683 -21.8271 13.4674 5.49481 4.86825 14.2369 5.07407 
-63.8462 97.5878 4.31203 90.627 -29.2398 90.173 -170.715 15.4876 88.904 -42.8346 11.9577 -1.72639 81.8008 10.0548 -0.0127777 13.2717 -6.80306 1.06555 178.732 36.9764 91.8868 -51.5785 -4.6718 -1.827 64.6174 -2.3546 -0.198179 21.3824 -1.62574 1.3907 -0.895812 8.69083 -89.8607 9.49573 -1.72329 0.406705 -2.1742 -1.70372 0.48217 -24.7183 -1.76583 -0.130177 -4.70564 -1.76583 -0.130176 95.7562 -41.6872 -92.9372 30.6148 -7.64451 4.33367 -23.3361 -11.6917 -30.7245 -9.21683 -0.146994 -3.3061 -85.8241 -36.1116 82.8383 -22.9951 10.0934 -2.21886 9.087 -9.77114 -34.8826 -1.02433 -0.0808677 -3.73733 -22.3545 14.1227 5.49603 4.85365 15.0104 6.29088 
